<?xml version="1.0" encoding="UTF-8"?>
<svg width="150px" height="150px" viewBox="0 0 150 150" version="1.1" xmlns="http://www.w3.org/2000/svg" xmlns:xlink="http://www.w3.org/1999/xlink">
    <title>919826</title>
    <g id="Site" stroke="none" stroke-width="1" fill="none" fill-rule="evenodd">
        <g id="FINAL-INTE" transform="translate(-473.000000, -3078.000000)" fill-rule="nonzero">
            <g id="outils-copy" transform="translate(129.000000, 2998.000000)">
                <g id="919826" transform="translate(344.000000, 80.000000)">
                    <path d="M150,75 C150,99.1163086 138.615234,120.575391 120.927539,134.295996 C108.23877,144.140918 92.3050781,150 75,150 C57.6949219,150 41.7612305,144.140918 29.0724609,134.295996 C11.3847656,120.575391 0,99.1163086 0,75 C0,33.5786133 33.5786133,0 75,0 C116.421387,0 150,33.5786133 150,75 Z" id="Path" fill="#F2F2F2"></path>
                    <path d="M129.489844,35.0021484 L120.927539,134.295996 C108.23877,144.140918 92.3050781,150 75,150 C57.6949219,150 41.7612305,144.140918 29.0724609,134.295996 L20.5101562,35.0021484 L129.489844,35.0021484 Z" id="Path" fill="#006BC0"></path>
                    <polygon id="Path" fill="#0096DC" points="74.9991211 44.3373047 74.9991211 148.035937 110.820996 137.922949 118.812012 44.3373047"></polygon>
                    <polygon id="Path" fill="#FFFFFF" points="106.651172 84.8985352 80.8154297 84.8985352 107.812207 71.1591797 108.978809 57.3474609 41.0194336 57.3474609 42.2085938 71.4290039 69.4889648 71.4290039 43.3139648 84.5167969 44.5318359 98.9422852 44.5318359 98.9422852 91.2234375 98.9422852 89.6929688 116.122852 74.9991211 120.102539 59.6929688 115.816699 59.3103516 105.102539 45.0521484 105.102539 46.8357422 126.225 74.9991211 134.184082 103.162207 126.225 106.652051 84.8961914"></polygon>
                    <g id="Group" transform="translate(43.066406, 4.394531)" fill="#222123">
                        <polygon id="Path" points="5.3765625 15.3 5.3765625 5.50400391 19.4581055 5.50400391 19.4581055 0.198046875 0.274511719 0.198046875 0.274511719 20.605957 19.4581055 20.605957 19.4581055 15.3"></polygon>
                        <polygon id="Path" points="27.6978516 8.18261719 27.6978516 5.73339844 41.7032227 5.73339844 41.7032227 5.50400391 41.7032227 0.198046875 22.5193359 0.198046875 22.5193359 12.8507812 36.2692383 12.8507812 36.2692383 15.3 22.5193359 15.3 22.5193359 20.605957 41.7032227 20.605957 41.7032227 15.3 41.7032227 8.18261719"></polygon>
                        <polygon id="Path" points="49.5855469 8.18261719 49.5855469 5.73339844 63.590625 5.73339844 63.590625 5.50400391 63.590625 0.198046875 44.4070313 0.198046875 44.4070313 12.8507812 58.1569336 12.8507812 58.1569336 15.3 44.4070313 15.3 44.4070313 20.605957 63.590625 20.605957 63.590625 15.3 63.590625 8.18261719"></polygon>
                    </g>
                </g>
            </g>
        </g>
    </g>
</svg>