<?xml version="1.0" encoding="UTF-8"?>
<svg width="68px" height="80px" viewBox="0 0 68 80" version="1.1" xmlns="http://www.w3.org/2000/svg" xmlns:xlink="http://www.w3.org/1999/xlink">
    <title>icone atomic design</title>
    <g id="Site" stroke="none" stroke-width="1" fill="none" fill-rule="evenodd">
        <g id="FINAL-INTE" transform="translate(-541.000000, -1362.000000)" fill-rule="nonzero">
            <g id="expertise-simple-copy" transform="translate(0.000000, 1242.000000)">
                <g id="Group" transform="translate(541.000000, 120.000000)">
                    <g transform="translate(26.000000, 29.564165)" fill="#F9012D" id="Oval">
                        <ellipse cx="8" cy="8.062954" rx="7.91416667" ry="7.97644522"></ellipse>
                    </g>
                    <ellipse id="Oval" fill="#870017" cx="42.8971667" cy="7.78478208" rx="3.7255" ry="3.75481689"></ellipse>
                    <ellipse id="Oval" fill="#F9830F" cx="4.605" cy="44.1078859" rx="3.7255" ry="3.75481689"></ellipse>
                    <g>
                        <ellipse id="Oval" fill="#FFFFFF" cx="34" cy="55.0034564" rx="3.7255" ry="3.75481689"></ellipse>
                        <g fill="#161616">
                            <path d="M59.884,37.6271186 C60.7736667,36.6313438 61.5991667,35.6306976 62.3518333,34.6297155 C67.0696667,28.3558974 68.4426667,22.762391 66.2183333,18.8794068 C63.994,14.9964225 58.5016667,13.3982778 50.7513333,14.3791026 C49.5155,14.5354903 48.2433333,14.7557097 46.9433333,15.0342176 C46.5411667,13.7879873 46.1033333,12.5941662 45.6311667,11.4588015 C46.7381667,10.6197503 47.4556667,9.28516344 47.4556667,7.78478208 C47.4556667,5.25116677 45.4105,3.19007415 42.8968333,3.19007415 C42.1883333,3.19007415 41.517,3.35385291 40.9181667,3.64579903 C38.7685,1.31594128 36.4423333,0.131694915 33.9996667,0.131694915 C29.551,0.131694915 25.4311667,4.1270566 22.3991667,11.3816995 C21.9155,12.5390693 21.4683333,13.7601029 21.0575,15.0345536 C19.757,14.7558777 18.4845,14.5356583 17.248,14.3791026 C9.49716667,13.3982778 4.00533333,14.9964225 1.781,18.8794068 C-0.443333333,22.762391 0.929833333,28.3560654 5.6475,34.6297155 C6.40033333,35.6308656 7.22616667,36.6320157 8.11633333,37.6281265 C7.46183333,38.3600076 6.84316667,39.0944083 6.2625,39.829145 C5.74816667,39.6260593 5.18933333,39.513178 4.6045,39.513178 C2.09083333,39.513178 0.0456666667,41.5744386 0.0456666667,44.1078859 C0.0456666667,45.5138635 0.676166667,46.7737001 1.66633333,47.6171186 C0.411166667,51.0233808 0.4465,54.0453087 1.781,56.3748305 C3.53316667,59.4333777 7.31,61.0857794 12.7035,61.1534746 C12.8196667,61.1548184 12.9361667,61.1556583 13.0535,61.1556583 C15.4981667,61.1556583 18.1913333,60.8373396 21.0578333,60.2208596 C21.4685,61.4949743 21.9155,62.7155039 22.399,63.8725378 C25.4308333,71.1271807 29.5506667,75.1225424 33.9995,75.1225424 C38.4483333,75.1225424 42.568,71.1271807 45.6,63.8725378 C46.0835,62.7155039 46.5305,61.4949743 46.9411667,60.2208596 C49.8075,60.8373396 52.5006667,61.1556583 54.9455,61.1554903 C55.0625,61.1554903 55.1795,61.1548184 55.2955,61.1533066 C60.689,61.0856114 64.4658333,59.4332097 66.218,56.3746625 C68.4423333,52.4916783 67.0691667,46.8980039 62.3515,40.6243538 C61.5991667,39.6235396 60.7736667,38.6228935 59.884,37.6271186 Z M50.9591667,16.0457824 C57.8985,15.1672564 62.9345,16.5063786 64.7751667,19.7192978 C66.6156667,22.932217 65.2483333,27.9970959 61.0236667,33.6151271 C60.3265,34.5421988 59.5653333,35.4696065 58.7453333,36.3933187 C56.158,33.6750953 53.0971667,31.010793 49.6825,28.5035502 C49.2361667,24.2652921 48.4785,20.2615315 47.4358333,16.6447927 C48.6383333,16.3911456 49.8148333,16.1905796 50.9591667,16.0457824 L50.9591667,16.0457824 Z M29.5306667,55.9093629 C26.9985,56.8780932 24.5398333,57.6568402 22.1941667,58.2360291 C21.2871667,55.1107945 20.5978333,51.6806795 20.1458333,48.053694 C21.988,49.3299924 23.919,50.5594249 25.9236667,51.7258656 C27.1376667,52.432382 28.3768333,53.1118538 29.614,53.7542025 C29.5023333,54.1516389 29.4413333,54.5704086 29.4413333,55.0034564 C29.4411667,55.3135442 29.4723333,55.6164089 29.5306667,55.9093629 L29.5306667,55.9093629 Z M34,52.0885306 C35.5946667,52.0885306 36.8921667,53.3960729 36.8921667,55.0034564 C36.8921667,56.6108399 35.5948333,57.9183823 34,57.9183823 C32.4051667,57.9183823 31.1078333,56.6106719 31.1078333,55.0034564 C31.1078333,53.3962409 32.4053333,52.0885306 34,52.0885306 Z M38.3861667,53.7545384 C39.621,53.1133656 40.8605,52.4333898 42.0763333,51.7258656 C44.081,50.5594249 46.012,49.3299924 47.8541667,48.053694 C47.4021667,51.6803435 46.713,55.1101226 45.8061667,58.2351892 C43.4603333,57.6563363 41.0016667,56.8780932 38.4693333,55.9093629 C38.5276667,55.6164089 38.5586667,55.3135442 38.5586667,55.0034564 C38.5588333,54.5704086 38.4976667,54.1519749 38.3861667,53.7545384 L38.3861667,53.7545384 Z M41.243,50.2710064 C40.0578333,50.9607249 38.8498333,51.6235669 37.6463333,52.2489498 C36.8138333,51.1323986 35.4893333,50.4087485 34,50.4087485 C32.5108333,50.4087485 31.1861667,51.1323986 30.3538333,52.2489498 C29.1481667,51.6222231 27.9406667,50.959717 26.757,50.2710064 C24.353,48.8720838 22.0578333,47.383125 19.9011667,45.8310064 C19.6458333,43.1725832 19.514,40.4247957 19.514,37.6269507 C19.514,34.8301135 19.6458333,32.0831659 19.901,29.4255826 C22.0605,27.8704404 24.3561667,26.3799697 26.757,24.982895 C29.161,23.5839725 31.588,22.3253117 34,21.2188393 C36.412,22.3253117 38.839,23.5839725 41.243,24.982895 C43.6478333,26.3823214 45.9436667,27.8719522 48.101,29.4245748 C48.3551667,32.0796383 48.486,34.826418 48.486,37.6269507 C48.486,40.4247957 48.354,43.1724153 48.0988333,45.8310064 C45.9421667,47.383125 43.647,48.8722518 41.243,50.2710064 L41.243,50.2710064 Z M18.1138333,44.5063302 C15.2238333,42.2985926 12.6215,39.9825091 10.3898333,37.6284625 C12.6223333,35.2750878 15.2261667,32.9578284 18.1136667,30.7509307 C17.9381667,32.9961274 17.8473333,35.2950772 17.8473333,37.6269507 C17.8473333,39.960168 17.9381667,42.2602936 18.1138333,44.5063302 L18.1138333,44.5063302 Z M20.1456667,27.2018871 C20.5976667,23.5742297 21.287,20.1436108 22.1941667,17.0180403 C25.3331667,17.7888923 28.6251667,18.9024198 31.968,20.3214997 C29.9501667,21.2912379 27.9283333,22.361931 25.9236667,23.5285396 C23.9213333,24.6934685 21.9898333,25.923405 20.1456667,27.2018871 Z M36.032,20.3214997 C39.3753333,18.9022518 42.6681667,17.7885563 45.8078333,17.0175363 C46.7156667,20.1422669 47.4043333,23.571878 47.8558333,27.2017191 C46.0131667,25.9249168 44.0816667,24.6951483 42.0765,23.5283717 C40.0716667,22.361931 38.0498333,21.2912379 36.032,20.3214997 Z M49.8873333,30.748747 C52.7775,32.9566525 55.3798333,35.2729041 57.6115,37.6271186 C55.3795,39.9815012 52.7768333,42.2982567 49.8861667,44.5063302 C50.0618333,42.2601256 50.1526667,39.960168 50.1526667,37.6271186 C50.1526667,35.2920536 50.0621667,32.9927679 49.8873333,30.748747 Z M45.7891667,7.78478208 C45.7891667,9.39199758 44.4918333,10.6997079 42.897,10.6997079 C41.3021667,10.6997079 40.0046667,9.39216556 40.0046667,7.78478208 C40.0046667,6.17739861 41.3021667,4.86985623 42.897,4.86985623 C44.4918333,4.86985623 45.7891667,6.17756659 45.7891667,7.78478208 Z M23.9355,12.0337909 C26.6505,5.53740163 30.319,1.811477 34,1.811477 C35.9143333,1.811477 37.786,2.76626513 39.5693333,4.64896489 C38.8065,5.47071429 38.3381667,6.57332324 38.3381667,7.78478208 C38.3381667,10.3182294 40.3833333,12.37949 42.8971667,12.37949 C43.3263333,12.37949 43.7413333,12.318178 44.1355,12.2058005 C44.557,13.2264361 44.9491667,14.2972972 45.3126667,15.4114967 C41.6828333,16.310852 37.8623333,17.6506462 34.0001667,19.3777981 C30.138,17.6506462 26.3175,16.310852 22.6876667,15.4114967 C23.0711667,14.2341374 23.4875,13.1058278 23.9355,12.0337909 L23.9355,12.0337909 Z M6.97633333,33.6151271 C2.75166667,27.9972639 1.38433333,22.932385 3.22483333,19.7192978 C5.06533333,16.5062107 10.1005,15.1677603 17.0408333,16.0457824 C18.186,16.1907476 19.3635,16.3914815 20.5671667,16.6452966 C19.5246667,20.2642191 18.7655,24.2699955 18.3186667,28.5059019 C14.908,31.0114649 11.8436667,33.6766071 9.2555,36.3939906 C8.43533333,35.4702785 7.67383333,34.5423668 6.97633333,33.6151271 L6.97633333,33.6151271 Z M4.605,41.19296 C6.19966667,41.19296 7.49716667,42.5005024 7.49716667,44.1078859 C7.49716667,45.7152694 6.19983333,47.0228117 4.605,47.0228117 C3.01016667,47.0228117 1.71283333,45.7151014 1.71283333,44.1078859 C1.71283333,42.5006704 3.01033333,41.19296 4.605,41.19296 L4.605,41.19296 Z M12.7248333,59.4738605 C6.69466667,59.3982703 4.2305,57.2901438 3.225,55.5349395 C2.17833333,53.7080085 2.15033333,51.2701407 3.13516667,48.4560018 C3.59666667,48.6149092 4.09083333,48.7024258 4.60516667,48.7024258 C7.11883333,48.7024258 9.164,46.6411653 9.164,44.1077179 C9.164,42.7704434 8.59383333,41.5650318 7.686,40.7246368 C8.1815,40.1032854 8.706,39.482102 9.2565,38.8624304 C11.8438333,41.5804858 14.9046667,44.2446202 18.3193333,46.7515269 C18.7663333,50.9867615 19.5255,54.9916979 20.5678333,58.6099485 C17.7418333,59.2092948 15.1015,59.5042645 12.7248333,59.4738605 L12.7248333,59.4738605 Z M44.0645,63.2204464 C41.3495,69.7168357 37.681,73.4427603 34,73.4427603 C30.319,73.4427603 26.6505,69.7168357 23.9355,63.2204464 C23.4875,62.1482415 23.071,61.0199319 22.6873333,59.8422367 C25.0823333,59.2467539 27.5843333,58.452049 30.155,57.4671928 C30.9651667,58.7468508 32.3853333,59.5979964 33.9998333,59.5979964 C35.6143333,59.5979964 37.0345,58.7468508 37.8446667,57.4671928 C40.4153333,58.452049 42.9175,59.2467539 45.3123333,59.8422367 C44.9288333,61.0199319 44.5125,62.1482415 44.0645,63.2204464 L44.0645,63.2204464 Z M64.775,55.5349395 C62.9533333,58.7149349 58.6035,59.4320339 55.2751667,59.4738605 C52.8988333,59.5029207 50.2585,59.207951 47.4326667,58.6092766 C48.4748333,54.991362 49.2338333,50.9867615 49.6808333,46.7518629 C53.0961667,44.2444522 56.1575,41.5796459 58.7451667,38.8610866 C59.5651667,39.7847987 60.3263333,40.7122064 61.0235,41.6392781 C65.2481667,47.2571413 66.6155,52.3218523 64.775,55.5349395 L64.775,55.5349395 Z" id="Shape"></path>
                            <path d="M36.987,29.3389059 C36.555,29.1810064 36.0765,29.4054252 35.9193333,29.8416646 C35.7621667,30.2775681 35.9853333,30.7593296 36.418,30.917901 C39.2068333,31.9390406 41.0808333,34.6352588 41.0808333,37.6271186 C41.0808333,41.5621762 37.9043333,44.7635048 34.0001667,44.7635048 C30.096,44.7635048 26.9193333,41.5621762 26.9193333,37.6271186 C26.9193333,34.6765814 28.7595,31.9932975 31.4986667,30.9501528 C31.9291667,30.7862061 32.1463333,30.301589 31.9836667,29.8677013 C31.8208333,29.4338136 31.3406667,29.214938 30.9095,29.3788847 C27.526,30.6672775 25.2528333,33.9821595 25.2528333,37.6271186 C25.2528333,42.488408 29.1768333,46.4432869 34.0001667,46.4432869 C38.8235,46.4432869 42.7473333,42.488408 42.7473333,37.6271186 C42.7473333,33.9312621 40.4325,30.6004222 36.987,29.3389059 L36.987,29.3389059 Z" id="Path"></path>
                        </g>
                    </g>
                </g>
            </g>
        </g>
    </g>
</svg>