<?xml version="1.0" encoding="UTF-8"?>
<svg width="150px" height="150px" viewBox="0 0 150 150" version="1.1" xmlns="http://www.w3.org/2000/svg" xmlns:xlink="http://www.w3.org/1999/xlink">
    <title>919827</title>
    <g id="Site" stroke="none" stroke-width="1" fill="none" fill-rule="evenodd">
        <g id="FINAL-INTE" transform="translate(-818.000000, -3078.000000)" fill-rule="nonzero">
            <g id="outils-copy" transform="translate(129.000000, 2998.000000)">
                <g id="919827" transform="translate(689.000000, 80.000000)">
                    <path d="M150,75 C150,99.1163086 138.615234,120.575391 120.927539,134.295996 C108.23877,144.140918 92.3050781,150 75,150 C57.8510742,150 42.0489258,144.244922 29.4152344,134.559082 C11.531543,120.854004 0,99.2724609 0,75 C0,33.5786133 33.5786133,0 75,0 C116.421387,0 150,33.5786133 150,75 Z" id="Path" fill="#F2F2F2"></path>
                    <path d="M129.489844,35.0021484 L120.927539,134.295996 C108.23877,144.140918 92.3050781,150 75,150 C57.8510742,150 42.0489258,144.244922 29.4152344,134.559082 L20.831543,35.0021484 L129.489844,35.0021484 Z" id="Path" fill="#E64C18"></path>
                    <polygon id="Path" fill="#F36518" points="75.1599609 44.3112305 75.1599609 147.705176 110.876953 137.62207 118.844238 44.3112305"></polygon>
                    <polygon id="Path" fill="#FFFFFF" points="41.2801758 57.2835938 44.7826172 98.7571289 91.3362305 98.7571289 89.8130859 115.889062 75.1608398 119.857031 59.9003906 115.582031 59.5171875 104.900684 45.3020508 104.900684 47.081543 125.959277 75.1608398 133.894922 103.239844 125.959277 106.719727 84.7543945 57.69375 84.7543945 56.4770508 71.325 56.4767578 71.3244141 107.878711 71.0551758 109.041211 57.2835938"></polygon>
                    <polygon id="Path" fill="#000000" points="44.2848633 4.92070313 44.2848633 12.0459961 37.4768555 12.0459961 37.4768555 4.92070313 31.143457 4.92070313 31.143457 25.3456055 37.4768555 25.3456055 37.4768555 18.6958008 44.2848633 18.6958008 44.2848633 25.3456055 50.6182617 25.3456055 50.6182617 4.92070313"></polygon>
                    <polygon id="Path" fill="#000000" points="73.1018555 4.92070313 53.6264648 4.92070313 53.6264648 12.0459961 59.9598633 12.0459961 59.9598633 25.5043945 66.768457 25.5043945 66.768457 12.0459961 73.1018555 12.0459961"></polygon>
                    <polygon id="Path" fill="#000000" points="109.360547 19.012207 109.360547 5.07919922 102.551953 5.07919922 102.551953 19.012207 102.551953 25.5043945 109.360547 25.5043945 119.176758 25.5043945 119.176758 19.012207"></polygon>
                    <polygon id="Path" fill="#000000" points="92.2599609 5.07919922 87.5103516 12.3624023 82.7601563 5.07919922 75.9518555 5.07919922 75.9518555 25.5043945 82.7601563 25.5043945 82.7601563 15.3706055 87.5103516 22.6543945 92.2599609 15.3706055 92.2599609 25.5043945 99.0685547 25.5043945 99.0685547 5.07919922"></polygon>
                </g>
            </g>
        </g>
    </g>
</svg>