<?xml version="1.0" encoding="UTF-8"?>
<svg width="102px" height="82px" viewBox="0 0 102 82" version="1.1" xmlns="http://www.w3.org/2000/svg" xmlns:xlink="http://www.w3.org/1999/xlink">
    <title>4069349</title>
    <g id="Site" stroke="none" stroke-width="1" fill="none" fill-rule="evenodd">
        <g id="FINAL-INTE" transform="translate(-971.000000, -1361.000000)" fill-rule="nonzero">
            <g id="expertise-simple-copy" transform="translate(0.000000, 1242.000000)">
                <g id="4069349" transform="translate(972.000000, 120.000000)">
                    <g id="Group">
                        <g>
                            <g>
                                <g id="Path">
                                    <path d="M96.1089855,79.92 L3.60115942,79.92 C1.68023188,79.92 0.122898551,78.3626667 0.122898551,76.4417391 L0.122898551,3.56823188 C0.122898551,1.64730435 1.68023188,0.0899710145 3.60115942,0.0899710145 L96.1089855,0.0899710145 C98.029913,0.0899710145 99.5872464,1.64730435 99.5872464,3.56823188 L99.5872464,76.4415072 C99.5872464,78.3626667 98.0301449,79.92 96.1089855,79.92 Z" fill="#FFFFFF"></path>
                                    <g transform="translate(4.405797, 60.753623)">
                                        <g>
                                            <path d="M26.8104348,19.1663768 L1.29205797,19.1663768 C0.651826087,19.1663768 0.132637681,18.6471884 0.132637681,18.0069565 L0.132637681,1.37391304 C0.132637681,0.733681159 0.651826087,0.214492754 1.29205797,0.214492754 L26.8104348,0.214492754 C27.4506667,0.214492754 27.9698551,0.733681159 27.9698551,1.37391304 L27.9698551,18.0069565 C27.9698551,18.6471884 27.4508986,19.1663768 26.8104348,19.1663768 Z" fill="#01ECA5"></path>
                                            <path d="M5.10330435,13.6593623 L8.68776812,10.0748986 L12.3118841,13.6987826 C12.5293913,13.9162899 12.8241159,14.0382609 13.1315942,14.0382609 C14.1644058,14.0382609 14.6817391,12.7895652 13.9513043,12.0591304 L13.3885217,11.4963478 L17.4750145,7.40869565 L23.7103768,13.644058 C23.9278841,13.8615652 24.2226087,13.9835362 24.530087,13.9835362 C25.5628986,13.9835362 26.0802319,12.7348406 25.3497971,12.0044058 L18.2944928,4.94910145 C18.0769855,4.7315942 17.7822609,4.6093913 17.4747826,4.6093913 C17.1673043,4.6093913 16.8721159,4.7315942 16.6548406,4.94910145 L11.7486377,9.85646377 L9.50724638,7.61507246 C9.05484058,7.16266667 8.32023188,7.16243478 7.86782609,7.61530435 L3.46365217,12.0194783 C2.73321739,12.749913 3.25055072,13.9986087 4.28336232,13.9986087 C4.59084058,13.9988406 4.8857971,13.8768696 5.10330435,13.6593623 L5.10330435,13.6593623 Z" fill="#FFFFFF"></path>
                                        </g>
                                        <g transform="translate(31.304348, 0.000000)">
                                            <path d="M26.9041159,19.1663768 L1.38573913,19.1663768 C0.745507246,19.1663768 0.226318841,18.6471884 0.226318841,18.0069565 L0.226318841,1.37391304 C0.226318841,0.733681159 0.745507246,0.214492754 1.38573913,0.214492754 L26.9041159,0.214492754 C27.5443478,0.214492754 28.0635362,0.733681159 28.0635362,1.37391304 L28.0635362,18.0069565 C28.0635362,18.6471884 27.5443478,19.1663768 26.9041159,19.1663768 Z" fill="#FF7EB8"></path>
                                            <path d="M5.19675362,13.6593623 L8.78121739,10.0748986 L12.4053333,13.6987826 C12.6228406,13.9162899 12.9175652,14.0382609 13.2250435,14.0382609 C14.2578551,14.0382609 14.7751884,12.7895652 14.0447536,12.0591304 L13.481971,11.4963478 L17.5684638,7.40869565 L23.804058,13.644058 C24.0215652,13.8615652 24.3162899,13.9835362 24.6237681,13.9835362 C25.6565797,13.9835362 26.173913,12.7348406 25.4434783,12.0044058 L18.3884058,4.94933333 C18.1708986,4.73182609 17.8761739,4.60962319 17.5686957,4.60962319 C17.2612174,4.60962319 16.966029,4.73182609 16.7487536,4.94933333 L11.8425507,9.85669565 L9.60115942,7.61530435 C9.14875362,7.16289855 8.41414493,7.16266667 7.96173913,7.61553623 L3.55756522,12.0197101 C2.82713043,12.7501449 3.34446377,13.9988406 4.37727536,13.9988406 C4.68452174,13.9988406 4.97924638,13.8768696 5.19675362,13.6593623 L5.19675362,13.6593623 Z" fill="#FFFFFF"></path>
                                        </g>
                                        <g transform="translate(62.840580, 0.000000)">
                                            <path d="M26.765913,19.1663768 L1.24730435,19.1663768 C0.607072464,19.1663768 0.087884058,18.6471884 0.087884058,18.0069565 L0.087884058,1.37391304 C0.087884058,0.733681159 0.607072464,0.214492754 1.24730435,0.214492754 L26.7656812,0.214492754 C27.405913,0.214492754 27.9251015,0.733681159 27.9251015,1.37391304 L27.9251015,18.0069565 C27.9251015,18.6471884 27.4061449,19.1663768 26.765913,19.1663768 Z" fill="#FFA8CF"></path>
                                            <path d="M5.05855072,13.6593623 L8.64301449,10.0748986 L12.2671304,13.6987826 C12.4846377,13.9162899 12.7793623,14.0382609 13.0868406,14.0382609 C14.1196522,14.0382609 14.6369855,12.7895652 13.9065507,12.0591304 L13.3437681,11.4963478 L17.4302609,7.40869565 L23.6656232,13.644058 C23.8831304,13.8615652 24.1778551,13.9835362 24.4853333,13.9835362 C25.5181449,13.9835362 26.0354783,12.7348406 25.3050435,12.0044058 L18.2497391,4.94910145 C18.0322319,4.7315942 17.7375072,4.6093913 17.430029,4.6093913 C17.1225507,4.6093913 16.8273623,4.7315942 16.610087,4.94910145 L11.7038841,9.85646377 L9.46249275,7.61507246 C9.01008696,7.16266667 8.27547826,7.16243478 7.82307246,7.61530435 L3.41889855,12.0194783 C2.68846377,12.749913 3.2057971,13.9986087 4.2386087,13.9986087 C4.54608696,13.9988406 4.84104348,13.8768696 5.05855072,13.6593623 L5.05855072,13.6593623 Z" fill="#FFFFFF"></path>
                                        </g>
                                    </g>
                                    <path d="M18.6093913,20.7137391 L7.55315942,20.7137391 C6.91292754,20.7137391 6.39373913,21.2329275 6.39373913,21.8731594 C6.39373913,22.5133913 6.91292754,23.0325797 7.55315942,23.0325797 L18.6096232,23.0325797 C19.2498551,23.0325797 19.7690435,22.5133913 19.7690435,21.8731594 C19.7688116,21.2329275 19.2496232,20.7137391 18.6093913,20.7137391 Z" fill="#9FB0FE"></path>
                                    <polygon fill="#9FB0FE" points="0.122898551 27.1005217 99.5872464 27.1005217 99.5872464 46.6877681 0.122898551 46.6877681"></polygon>
                                    <path d="M99.5872464,27.1005217 L99.5872464,46.6877681 L52.9576812,46.6877681 C53.3542029,32.1393623 81.586087,27.1005217 81.586087,27.1005217 L99.5872464,27.1005217 Z" fill="#B7C5FF"></path>
                                    <path d="M27.9443478,46.6877681 L0.122898551,46.6877681 L0.122898551,27.1005217 L7.40637681,27.1005217 C7.87478261,30.1544348 9.91072464,33.890087 16.9484058,34.4025507 C26.8127536,35.1190725 30.7037681,41.7184928 27.9443478,46.6877681 Z" fill="#8399FE"></path>
                                    <path d="M99.5872464,27.1005217 L99.5872464,46.6877681 L79.1884058,46.6877681 C76.493913,40.8929855 82.2724638,34.0477681 71.04,34.4025507 C60.8533333,34.7248696 55.3994203,30.210087 52.8672464,27.1005217 L99.5872464,27.1005217 Z" fill="#8399FE"></path>
                                    <path d="M99.5872464,16.1625507 L99.5872464,3.56823188 C99.5872464,1.64730435 98.029913,0.0899710145 96.1089855,0.0899710145 L3.60115942,0.0899710145 C1.68023188,0.0899710145 0.122898551,1.64730435 0.122898551,3.56823188 L0.122898551,16.1625507 L99.5872464,16.1625507 Z" fill="#F9830F"></path>
                                </g>
                                <g transform="translate(7.652174, 4.869565)">
                                    <g transform="translate(0.000000, 1.159420)" id="Oval">
                                        <circle fill="#FF5BA8" cx="2.69518841" cy="2.61773913" r="2.52776812"></circle>
                                        <circle fill="#FFFFFF" cx="10.7649855" cy="2.61773913" r="2.52776812"></circle>
                                        <circle fill="#02FFB3" cx="18.8345507" cy="2.61773913" r="2.52776812"></circle>
                                    </g>
                                    <path d="M83.0787246,6.61727536 L51.5058551,6.61727536 L51.5058551,0.937043478 L83.0787246,0.937043478 C83.7189565,0.937043478 84.2381449,1.45623188 84.2381449,2.09646377 L84.2381449,5.45785507 C84.2381449,6.09808696 83.7191884,6.61727536 83.0787246,6.61727536 L83.0787246,6.61727536 Z" id="Path" fill="#D2DEFF"></path>
                                    <path d="M51.6612174,1.0093913 C50.4354783,-0.216347826 48.4410435,-0.216347826 47.2153043,1.0093913 C45.9895652,2.23513043 45.9895652,4.22956522 47.2153043,5.45530435 C48.1514203,6.39142029 49.5348406,6.61008696 50.6826667,6.11663768 L51.6908986,7.12486957 C52.1437681,7.57750725 52.877913,7.57750725 53.3305507,7.12486957 C53.7831884,6.67223188 53.7831884,5.93785507 53.3305507,5.48521739 L52.3223188,4.47698551 C52.816,3.32892754 52.5973333,1.94550725 51.6612174,1.0093913 L51.6612174,1.0093913 Z M48.8549565,2.64904348 C49.1765797,2.32742029 49.699942,2.32742029 50.0215652,2.64904348 C50.3431884,2.97066667 50.3431884,3.49402899 50.0215652,3.81565217 C49.699942,4.13727536 49.1765797,4.13727536 48.8549565,3.81565217 C48.5333333,3.4937971 48.5333333,2.97066667 48.8549565,2.64904348 Z" id="Shape" fill="#FFFFFF"></path>
                                </g>
                            </g>
                            <path d="M73.5925797,24.9634783 L26.1175652,24.9634783 C25.4773333,24.9634783 24.9581449,24.4442899 24.9581449,23.804058 L24.9581449,19.9422609 C24.9581449,19.3017971 25.4773333,18.7828406 26.1175652,18.7828406 L73.5925797,18.7828406 C74.2328116,18.7828406 74.752,19.3017971 74.752,19.9422609 L74.752,23.804058 C74.752,24.4442899 74.2328116,24.9634783 73.5925797,24.9634783 Z" id="Path" fill="#D2DEFF"></path>
                            <path d="M73.5925797,18.7828406 L67.330087,18.7828406 L67.330087,24.9634783 L73.5925797,24.9634783 C74.2328116,24.9634783 74.752,24.4442899 74.752,23.804058 L74.752,19.9422609 C74.752,19.3017971 74.2328116,18.7828406 73.5925797,18.7828406 Z" id="Path" fill="#8399FE"></path>
                            <g transform="translate(7.652174, 19.478261)" fill="#D2DEFF">
                                <path d="M86.2455652,4.78886957 L72.7209275,4.78886957 C72.0804638,4.78886957 71.5615072,4.26968116 71.5615072,3.62944928 L71.5615072,1.16034783 C71.5615072,0.520115942 72.0804638,0.000927536232 72.7209275,0.000927536232 L86.2455652,0.000927536232 C86.8857971,0.000927536232 87.4049855,0.520115942 87.4049855,1.16034783 L87.4049855,3.62944928 C87.4049855,4.26968116 86.8857971,4.78886957 86.2455652,4.78886957 Z" id="Path"></path>
                                <circle id="Oval" cx="59.677913" cy="21.638029" r="2.15605797"></circle>
                                <path d="M26.6481159,27.2095072 L0.215652174,27.2095072 C0.704927536,25.6141449 12.1166377,13.0835942 21.3623188,13.2623768 C31.9951304,13.4682899 21.7878261,23.2813913 26.6481159,27.2095072 L26.6481159,27.2095072 Z" id="Path"></path>
                            </g>
                            <g transform="translate(27.826087, 52.173913)" id="Path">
                                <path d="M6.85356522,0.048 L1.36231884,0.048 C0.722086957,0.048 0.202898551,0.567188406 0.202898551,1.20742029 C0.202898551,1.84765217 0.722086957,2.36684058 1.36231884,2.36684058 L6.85356522,2.36684058 C7.4937971,2.36684058 8.01298551,1.84765217 8.01298551,1.20742029 C8.01298551,0.567188406 7.4937971,0.048 6.85356522,0.048 Z" fill="#6583FE"></path>
                                <path d="M18.8009275,0.048 L13.3096812,0.048 C12.6694493,0.048 12.1502609,0.567188406 12.1502609,1.20742029 C12.1502609,1.84765217 12.6694493,2.36684058 13.3096812,2.36684058 L18.8009275,2.36684058 C19.4411594,2.36684058 19.9603478,1.84765217 19.9603478,1.20742029 C19.9603478,0.567188406 19.4411594,0.048 18.8009275,0.048 Z" fill="#9FB0FE"></path>
                                <path d="M30.7482899,0.048 L25.2570435,0.048 C24.6168116,0.048 24.0976232,0.567188406 24.0976232,1.20742029 C24.0976232,1.84765217 24.6168116,2.36684058 25.2570435,2.36684058 L30.7482899,2.36684058 C31.3885217,2.36684058 31.9077101,1.84765217 31.9077101,1.20742029 C31.9077101,0.567188406 31.3885217,0.048 30.7482899,0.048 Z" fill="#9FB0FE"></path>
                                <path d="M42.6956522,0.048 L37.2044058,0.048 C36.5641739,0.048 36.0449855,0.567188406 36.0449855,1.20742029 C36.0449855,1.84765217 36.5641739,2.36684058 37.2044058,2.36684058 L42.6956522,2.36684058 C43.3358841,2.36684058 43.8550725,1.84765217 43.8550725,1.20742029 C43.8550725,0.567188406 43.3358841,0.048 42.6956522,0.048 Z" fill="#9FB0FE"></path>
                            </g>
                        </g>
                        <path d="M56.8046377,42.115942 L42.9055072,42.115942 C42.2652754,42.115942 41.746087,41.5967536 41.746087,40.9565217 L41.746087,39.0532174 C41.746087,38.4129855 42.2652754,37.8937971 42.9055072,37.8937971 L56.8048696,37.8937971 C57.4451014,37.8937971 57.9642899,38.4129855 57.9642899,39.0532174 L57.9642899,40.9565217 C57.964058,41.5969855 57.4451014,42.115942 56.8046377,42.115942 Z" id="Path" fill="#02FFB3"></path>
                    </g>
                    <path d="M96.1089855,79.92 L3.60115942,79.92 C1.68023188,79.92 0.122898551,78.3626667 0.122898551,76.4417391 L0.122898551,3.56823188 C0.122898551,1.64730435 1.68023188,0.0899710145 3.60115942,0.0899710145 L96.1089855,0.0899710145 C98.029913,0.0899710145 99.5872464,1.64730435 99.5872464,3.56823188 L99.5872464,76.4415072 C99.5872464,78.3626667 98.0301449,79.92 96.1089855,79.92 Z" id="Path-Copy-5" stroke="#161616"></path>
                </g>
            </g>
        </g>
    </g>
</svg>