<?xml version="1.0" encoding="UTF-8"?>
<svg width="68px" height="88px" viewBox="0 0 68 88" version="1.1" xmlns="http://www.w3.org/2000/svg" xmlns:xlink="http://www.w3.org/1999/xlink">
    <title>Logo small</title>
    <defs>
        <linearGradient x1="50%" y1="-338.055003%" x2="50%" y2="100%" id="linearGradient-1">
            <stop stop-color="#F9012D" offset="0%"></stop>
            <stop stop-color="#F98210" offset="100%"></stop>
        </linearGradient>
        <linearGradient x1="50%" y1="0%" x2="50%" y2="100%" id="linearGradient-2">
            <stop stop-color="#F9012D" offset="0%"></stop>
            <stop stop-color="#F9830F" offset="100%"></stop>
        </linearGradient>
    </defs>
    <g id="Logo-small" stroke="none" stroke-width="1" fill="none" fill-rule="evenodd">
        <g id="Logo" transform="translate(1.000000, 1.000000)">
            <path d="M31.7099945,68.1045663 L45.6495821,68.1045663 C49.5968915,68.0945894 53.8977365,70.1175941 58.5521172,74.1735804 C59.5323632,74.9732106 65.0124352,81.1316485 65.0124352,82.8457383 C65.0124352,83.9561703 64.2770547,84.3472355 63.5809673,84.4849585 C43.870105,83.6309738 27.7833684,75.4964781 25.0962252,65.5161559 C26.4226268,66.9726168 28.6268411,67.8351086 31.7099945,68.1045663 Z" id="Combined-Shape-Copy-6" fill="url(#linearGradient-1)"></path>
            <path d="M35.3616395,0.200401667 C37.0914033,0.920071175 42.6108311,6.65007644 43.3184108,13.4841374 C44.0259905,20.3181984 42.044631,26.1048833 39.8117452,30.858199 C39.8117452,30.858199 34.7937341,40.0494136 24.7577119,58.4318426 C24.0063275,60.1012157 23.6327687,61.6377464 23.6370356,63.0414346 C23.6535505,63.2121812 23.6753273,63.3793743 23.7023662,63.5430142 L23.7014175,63.5694214 L23.7014175,63.5694214 C23.7014175,74.9592043 41.2888927,84.7313473 63.1953718,85.5095983 C63.0058164,85.5438503 62.82785,85.5562278 62.6810883,85.5592176 L16.8776067,85.559286 C16.4324042,85.549564 12.813005,85.4060089 8.67764208,83.2941627 C5.91889442,81.885326 4.35916662,80.3102655 2.90197339,78.620489 C1.14663947,76.5541763 0.183478585,73.382202 0.0124907246,69.1045663 C-0.0335665621,66.9228165 0.0477470841,65.3983203 0.256431663,64.5310779 C0.633084474,62.2229639 1.58481448,59.5239888 3.11202029,56.4351252 L32.4036972,1.34549325 C33.2224828,0.10231919 34.2084636,-0.279378005 35.3616395,0.200401667 Z" id="Combined-Shape-Copy-5" fill="url(#linearGradient-2)"></path>
        </g>
    </g>
</svg>