<?xml version="1.0" encoding="UTF-8"?>
<svg width="150px" height="150px" viewBox="0 0 150 150" version="1.1" xmlns="http://www.w3.org/2000/svg" xmlns:xlink="http://www.w3.org/1999/xlink">
    <title>919851</title>
    <g id="Site" stroke="none" stroke-width="1" fill="none" fill-rule="evenodd">
        <g id="FINAL-INTE" transform="translate(-993.000000, -3330.000000)" fill-rule="nonzero">
            <g id="outils-copy" transform="translate(129.000000, 2998.000000)">
                <g id="919851" transform="translate(864.000000, 332.000000)">
                    <path d="M150,75 C150,99.7101562 138.048926,121.628613 119.61416,135.293848 C111.896777,141.012305 103.043848,145.285547 93.4558594,147.710156 C87.5510742,149.207227 81.3703125,150 75,150 C68.6296875,150 62.4459961,149.207227 56.540918,147.710156 C46.9532227,145.285547 38.1,141.012305 30.3826172,135.290625 C11.9478516,121.625391 0,99.7072266 0,75 C0,33.5786133 33.5786133,0 75,0 C116.421387,0 150,33.5786133 150,75 Z" id="Path" fill="#F2F2F2"></path>
                    <g id="Group" transform="translate(2.050781, 19.628906)" fill="#5ADAFD">
                        <path d="M117.640137,97.6007812 C117.287988,95.240625 116.822754,92.8098633 116.247363,90.3243164 C115.739063,88.1416992 115.148438,85.9160156 114.478125,83.6569336 C112.714746,77.7243164 110.391504,71.559082 107.575195,65.3264648 C106.341504,62.6018555 105.012891,59.8652344 103.595508,57.131543 C102.346582,54.7224609 101.030273,52.3101563 99.6433594,49.9130859 C98.259668,47.5130859 96.8332031,45.1681641 95.3668945,42.881543 C93.7107422,40.2887695 92.0056641,37.7724609 90.2607422,35.3416992 C86.2749023,29.7855469 82.096582,24.6887695 77.8382813,20.1946289 C76.219043,18.4833984 74.587207,16.8609375 72.9495117,15.3333984 C71.0853516,13.5884766 69.2118164,11.9692383 67.3412109,10.4844727 C55.1299805,0.789550781 44.1984375,-2.12167969 36.5545898,2.28955078 C28.9107422,6.70371094 25.9658203,17.6261719 28.2556641,33.0518555 C28.6045898,35.4120117 29.0730469,37.8427734 29.6516602,40.3283203 C30.1538086,42.5109375 30.7444336,44.7366211 31.4179688,46.9957031 C33.1813477,52.9283203 35.5045898,59.0967773 38.3241211,65.3261719 C39.5548828,68.0507813 40.8832031,70.7841797 42.3005859,73.5178711 C43.5495117,75.9301758 44.869043,78.3392578 46.2527344,80.7392578 C47.6364258,83.1392578 49.0628906,85.4841797 50.5291992,87.7708008 C52.1882813,90.3667969 53.8933594,92.8831055 55.6353516,95.3135742 C59.6211914,100.869727 63.7995117,105.963574 68.0578125,110.457422 C69.6773438,112.168652 71.3118164,113.794043 72.9495117,115.321582 C74.8136719,117.066504 76.687207,118.682812 78.5545898,120.167578 C83.0455078,123.733887 87.3618164,126.381738 91.4056641,128.080957 C100.993359,125.656348 109.846582,121.383105 117.563672,115.664648 C118.640918,110.699707 118.680762,104.61709 117.640137,97.6007812 Z M110.764453,114.550781 C109.873535,118.401855 108.23584,121.040625 105.894141,122.390625 C103.555371,123.743555 100.451367,123.841699 96.6706055,122.690625 C92.5746094,121.438477 87.7930664,118.701855 82.8401367,114.768164 C81.1749023,113.445703 79.5064453,112.006934 77.8379883,110.460937 C76.2032227,108.94248 74.568457,107.32002 72.9462891,105.602637 C70.1604492,102.654785 67.4053711,99.4280273 64.7176758,95.9660156 C62.9238281,93.6547852 61.1575195,91.2395508 59.4339844,88.7323242 C56.9329102,85.0986328 54.5176758,81.272168 52.2216797,77.2924805 C49.9227539,73.312793 47.8166016,69.3087891 45.9216797,65.3261719 C44.6115234,62.5801758 43.4021484,59.8435547 42.300293,57.1344727 C40.6441406,53.0753906 39.2267578,49.0743164 38.0666016,45.1895508 C37.3930664,42.9243164 36.8024414,40.7018555 36.309375,38.5253906 C35.8010742,36.309082 35.3879883,34.1416992 35.0756836,32.0387695 C34.1452148,25.7847656 34.1666016,20.2746094 35.1307617,16.1021484 C36.0216797,12.2510742 37.6623047,9.61230469 40.0010742,8.26230469 C41.2652344,7.53369141 42.75,7.16630859 44.4427734,7.16630859 C45.8876953,7.16630859 47.4855469,7.43261719 49.2243164,7.96523438 C53.3203125,9.21416016 58.1018555,11.9540039 63.0547852,15.8847656 C64.7200195,17.2072266 66.3914063,18.6459961 68.0569336,20.1981445 C69.6946289,21.7133789 71.3264648,23.3358398 72.9457031,25.050293 C75.7344727,27.9981445 78.4895508,31.2249023 81.1804687,34.6901367 C82.9743164,37.0013672 84.740625,39.4166016 86.4641602,41.9238281 C88.9620117,45.5575195 91.3775391,49.3839844 93.6732422,53.3604492 C95.972168,57.3401367 98.0783203,61.3441406 99.9732422,65.3267578 C101.283398,68.0756836 102.492773,70.8125977 103.594629,73.5216797 C105.250781,77.5807617 106.668164,81.5789062 107.82832,85.4633789 C108.501855,87.7286133 109.09248,89.9510742 109.588477,92.1275391 C110.093555,94.3438477 110.506934,96.5112305 110.819238,98.6141602 C111.750293,104.868164 111.728906,110.37832 110.764453,114.550781 Z" id="Shape"></path>
                        <path d="M123.245215,42.7620117 C121.025684,41.8866211 118.686914,41.0753906 116.244141,40.3283203 C114.101367,39.6761719 111.878906,39.0732422 109.58584,38.5253906 C103.567383,37.0866211 97.0655273,36.0152344 90.2604492,35.3416992 C87.2879883,35.0446289 84.2542969,34.8275391 81.1807617,34.6895508 C78.468457,34.5641602 75.7195312,34.499707 72.9492187,34.499707 C70.1789062,34.499707 67.4296875,34.5638672 64.7144531,34.6895508 C61.6379883,34.8272461 58.6042969,35.0478516 55.6318359,35.3416992 C48.8267578,36.0152344 42.327832,37.0866211 36.309375,38.5253906 C34.0166016,39.0732422 31.7941406,39.6764648 29.6510742,40.3283203 C27.2083008,41.072168 24.8695312,41.8866211 22.65,42.7620117 C8.14921875,48.4863281 0.159375,56.5007813 0.159375,65.3261719 C0.159375,74.1515625 8.14921875,82.1660156 22.650293,87.8935547 C24.8698242,88.7689453 27.2053711,89.5801758 29.6481445,90.3272461 C31.790918,90.9793945 34.0133789,91.5823242 36.3064453,92.1272461 C42.3249023,93.5689453 48.8267578,94.6374023 55.6350586,95.3138672 C58.6075195,95.6077148 61.6412109,95.8250977 64.7176758,95.9660156 C67.4299805,96.0914063 70.1789062,96.1526367 72.9492187,96.1526367 C75.7195312,96.1526367 78.4655273,96.0914063 81.177832,95.9660156 C84.2542969,95.8250977 87.2850586,95.6077148 90.2604492,95.3138672 C97.0655273,94.640332 103.570605,93.5689453 109.589062,92.1272461 C111.881836,91.5793945 114.104297,90.9793945 116.247363,90.3243164 C118.687207,89.5804688 121.025977,88.7692383 123.245215,87.8935547 C137.749219,82.1660156 145.736133,74.1518555 145.736133,65.3261719 C145.736133,56.5007813 137.749219,48.4863281 123.245215,42.7620117 Z M134.48584,73.462793 C131.357227,76.3863281 126.594141,79.1566406 120.713379,81.4801758 C118.73291,82.2606445 116.651074,82.9892578 114.477539,83.6566406 C112.343848,84.3149414 110.124609,84.9178711 107.828613,85.462793 C103.882617,86.4026367 99.7101562,87.1740234 95.3663086,87.7710937 C92.4703125,88.172168 89.4978516,88.4935547 86.4641602,88.7293945 C82.0652344,89.081543 77.5438477,89.259082 72.9489258,89.259082 C68.3540039,89.259082 63.8326172,89.081543 59.4336914,88.7326172 C56.4,88.4938477 53.4246094,88.1724609 50.5286133,87.7713867 C46.1847656,87.1743164 42.0123047,86.4029297 38.0663086,85.4630859 C35.7703125,84.9181641 33.5510742,84.3152344 31.4173828,83.6569336 C29.2438477,82.9895508 27.1623047,82.2609375 25.181543,81.4804687 C19.3010742,79.1569336 14.5376953,76.3866211 11.409082,73.4630859 C8.51923828,70.7660156 7.05292969,68.0293945 7.05292969,65.3264648 C7.05292969,62.6235352 8.51923828,59.8866211 11.409082,57.1898437 C14.5376953,54.2663086 19.3007812,51.4959961 25.181543,49.1724609 C27.1620117,48.3919922 29.2438477,47.6633789 31.4173828,46.9959961 C33.5510742,46.3376953 35.7703125,45.7347656 38.0663086,45.1898437 C42.0123047,44.25 46.1847656,43.4786133 50.5286133,42.881543 C53.4246094,42.4804687 56.4,42.159082 59.4336914,41.9203125 C63.8326172,41.5713867 68.3540039,41.3938477 72.9489258,41.3938477 C77.5438477,41.3938477 82.0652344,41.5713867 86.4641602,41.9235352 C89.4978516,42.159375 92.4703125,42.4807617 95.3663086,42.8818359 C99.7101562,43.4789062 103.882617,44.250293 107.828613,45.1901367 C110.124609,45.7350586 112.343848,46.3379883 114.477539,46.9962891 C116.651074,47.6636719 118.732617,48.3922852 120.713379,49.1727539 C126.593848,51.4962891 131.357227,54.2666016 134.48584,57.1901367 C137.375684,59.887207 138.841992,62.6238281 138.841992,65.3267578 C138.841992,68.0293945 137.375684,70.7660156 134.48584,73.462793 Z" id="Shape"></path>
                        <path d="M109.340918,2.28955078 C101.69707,-2.12167969 90.7655273,0.789550781 78.5542969,10.4844727 C76.6869141,11.9692383 74.8133789,13.5884766 72.9492188,15.3333984 C71.3115234,16.8609375 69.6767578,18.4863281 68.0575195,20.1975586 C63.7992187,24.6914062 59.6208984,29.7852539 55.6321289,35.3414062 C53.8904297,37.771875 52.1850586,40.2884766 50.5291992,42.88125 C49.0628906,45.1678711 47.6364258,47.512793 46.2527344,49.912793 C44.869043,52.312793 43.5498047,54.721875 42.3005859,57.1341797 C40.8832031,59.8678711 39.5545898,62.6044922 38.3241211,65.3258789 C35.5045898,71.5584961 33.1813477,77.7237305 31.4179687,83.6563477 C30.7444336,85.9186523 30.1538086,88.144043 29.6484375,90.3266602 C29.0730469,92.8125 28.6045898,95.2400391 28.2556641,97.6001953 C27.2147461,104.613574 27.2545898,110.696191 28.3321289,115.661426 C36.0495117,121.382812 44.9024414,125.656348 54.4904297,128.080957 C58.5342773,126.382031 62.8505859,123.733887 67.3415039,120.167578 C69.2118164,118.682812 71.0853516,117.063574 72.9498047,115.321582 C74.5875,113.794043 76.2193359,112.171582 77.8385742,110.460352 C82.0936523,105.966504 86.2751953,100.869434 90.2610352,95.3132812 C92.0027344,92.8825195 93.7081055,90.3662109 95.3671875,87.7705078 C96.8334961,85.4838867 98.2599609,83.1389648 99.6436523,80.7389648 C101.030273,78.3418945 102.346582,75.9328125 103.595801,73.5205078 C105.013184,70.7868164 106.341797,68.0501953 107.575488,65.3255859 C110.391797,59.0958984 112.715332,52.9277344 114.478418,46.9951172 C115.14873,44.7360352 115.739648,42.5103516 116.244727,40.3277344 C116.82334,37.8418945 117.288574,35.4114258 117.640723,33.0512695 C119.929687,17.6261719 116.985059,6.70371094 109.340918,2.28955078 Z M107.828906,45.1895508 C106.66875,49.0743164 105.251367,53.072168 103.595215,57.13125 C102.493066,59.840332 101.283984,62.5772461 99.9738281,65.3261719 C98.0789062,69.3087891 95.9727539,73.312793 93.6738281,77.2924805 C91.377832,81.2689453 88.9625977,85.0954102 86.4647461,88.7291016 C84.7382812,91.2392578 82.9719727,93.6544922 81.178125,95.9657227 C78.4904297,99.4280273 75.7353516,102.654492 72.946582,105.602344 C71.3273437,107.316504 69.6955078,108.938965 68.0578125,110.457422 C66.3925781,112.006348 64.7211914,113.445117 63.0556641,114.767578 C58.1027344,118.70127 53.3208984,121.437891 49.2251953,122.690039 C45.4447266,123.841113 42.3404297,123.742969 40.0016602,122.390039 C37.6628906,121.040039 36.0219727,118.40127 35.1313477,114.550195 C34.1671875,110.377734 34.1455078,104.867578 35.0762695,98.6135742 C35.3885742,96.5106445 35.8016602,94.3432617 36.3067383,92.1269531 C36.8027344,89.9504883 37.3933594,87.7280273 38.0668945,85.462793 C39.2270508,81.5780273 40.6444336,77.5769531 42.3005859,73.5178711 C43.4027344,70.8087891 44.6118164,68.071875 45.9219727,65.3261719 C47.8168945,61.3435547 49.9230469,57.3395508 52.2219727,53.3598633 C54.5179687,49.3801758 56.9332031,45.5537109 59.4342773,41.9200195 C61.1578125,39.412793 62.9208984,36.9975586 64.7147461,34.6895508 C67.4056641,31.2243164 70.1607422,27.9978516 72.9462891,25.049707 C74.56875,23.3323242 76.2035156,21.7098633 77.8379883,20.1946289 C79.5064453,18.6457031 81.1746094,17.2069336 82.8401367,15.8844727 C87.7930664,11.9540039 92.5749023,9.21416016 96.6706055,7.96494141 C98.409375,7.43232422 100.007227,7.16601562 101.452148,7.16601562 C103.144922,7.16601562 104.632617,7.53339844 105.893848,8.26201172 C108.235547,9.61201172 109.873535,12.2507812 110.76416,16.1018555 C111.72832,20.2743164 111.75,25.7844727 110.819238,32.0384766 C110.506934,34.1414062 110.093848,36.3087891 109.585547,38.5250977 C109.093066,40.7015625 108.502148,42.9240234 107.828906,45.1895508 Z" id="Shape"></path>
                        <circle id="Oval" cx="72.9492188" cy="65.3261719" r="13.6804688"></circle>
                    </g>
                </g>
            </g>
        </g>
    </g>
</svg>