<?xml version="1.0" encoding="UTF-8"?>
<svg width="150px" height="150px" viewBox="0 0 150 150" version="1.1" xmlns="http://www.w3.org/2000/svg" xmlns:xlink="http://www.w3.org/1999/xlink">
    <title>919831</title>
    <g id="Site" stroke="none" stroke-width="1" fill="none" fill-rule="evenodd">
        <g id="FINAL-INTE" transform="translate(-129.000000, -3078.000000)" fill-rule="nonzero">
            <g id="outils-copy" transform="translate(129.000000, 2998.000000)">
                <g id="919831" transform="translate(0.000000, 80.000000)">
                    <path d="M150,75 C150,77.3173828 149.895996,79.6072266 149.687695,81.8695312 C149.528613,83.6604492 149.301855,85.4296875 149.01416,87.177832 C143.197852,122.807227 112.273535,150 75,150 C56.0141602,150 38.6786133,142.94707 25.4663086,131.31416 C20.5836914,127.019238 16.2641602,122.096777 12.6336914,116.672461 C4.65292969,104.755078 0,90.4195313 0,75 C0,33.5786133 33.5786133,0 75,0 C116.421387,0 150,33.5786133 150,75 Z" id="Path" fill="#F2F2F2"></path>
                    <path d="M130.88877,83.4887695 C128.61416,84.3489258 128.706152,84.3641602 127.50293,82.1724609 C125.966309,79.3807617 125.148926,76.4449219 125.07832,73.2521484 C125.02002,70.5123047 125.77002,67.9655273 126.713086,65.4673828 C127.466016,63.4807617 126.486621,62.7796875 124.766016,62.5989258 C123.513867,62.4703125 122.222168,62.4826172 120.96709,62.6112305 C117.703711,62.9449219 117.382324,63.2264648 116.516016,66.3949219 C116.001855,68.2746094 115.591406,70.1695312 114.737402,71.9540039 C112.63125,76.3467773 110.237402,80.5775391 107.782324,84.7775391 C107.341406,85.5336914 106.977246,86.3478516 106.355859,86.9938477 C104.577246,84.3304687 103.906934,81.3887695 103.756934,78.3029297 C103.606934,75.2569336 104.540625,72.4253906 105.566016,69.6243164 C105.912012,68.681543 105.624316,68.0967773 104.809863,67.6895508 C104.448633,67.509082 104.044629,67.340625 103.649707,67.3098633 C101.555859,67.1446289 99.4681641,67.1689453 97.4261719,67.7414062 C96.5077148,67.9954102 95.9077148,68.5098633 95.7026367,69.5414062 C95.3047852,71.5587891 94.6833984,73.5178711 93.8443359,75.4037109 C91.5178711,80.6261719 89.2066406,85.8577148 86.8831055,91.0833984 C84.862793,95.6232422 82.8729492,100.175098 80.4791016,104.534473 C80.3106445,104.843555 80.1700195,105.379395 79.7475586,105.272168 C79.3189453,105.164941 79.4689453,104.638477 79.4504883,104.277246 C79.312793,101.705859 80.0138672,99.2537109 80.6106445,96.7986328 C81.5566406,92.9138672 82.5911133,89.0475586 83.5954102,85.1750977 C83.8831055,84.0638672 83.3994141,83.3167969 82.4780273,82.7841797 C81.1526367,82.021875 79.8331055,81.9852539 78.3975586,83.053418 C78.5935547,81.4737305 78.6791016,80.0871094 78.6117187,78.7004883 C78.4587891,75.6087891 77.0258789,73.5975586 74.53125,73.1320312 C72.7098633,72.7921875 70.9863281,73.321875 69.3577148,74.0932617 C65.5617187,75.890332 62.5098633,78.5994141 59.9443359,81.8871094 C59.6443359,82.2697266 59.3414062,82.621875 58.9066406,82.8574219 C54.0914062,85.480957 49.2791016,88.1044922 44.4761719,90.7523437 C43.949707,91.0461914 43.6098633,90.9635742 43.2301758,90.5563477 C40.8117187,87.9635742 38.0047852,85.8237305 35.2250977,83.653418 C31.340332,80.6167969 27.3210937,77.7392578 23.9689453,74.0780273 C22.0098633,71.9352539 20.3750977,69.5871094 19.5577148,66.7526367 C18.2229492,62.1178711 19.2210937,57.8015625 21.4435547,53.699707 C24.0732422,48.8475586 27.9732422,45.1007812 32.2740234,41.7638672 C39.1037109,36.4678711 46.5943359,32.2617187 54.4892578,28.799707 C63.3301758,24.9272461 72.5015625,22.4323242 82.2697266,22.8087891 C86.1392578,22.9587891 89.8951172,23.6291016 93.3421875,25.5240234 C95.7820312,26.8649414 97.3983398,28.8026367 97.8544922,31.6464844 C98.390332,34.9769531 97.5911133,38.0537109 96.112793,40.9710937 C92.8098633,47.4884766 87.5598633,52.1047852 81.3544922,55.7200195 C76.1871094,58.7291016 70.612793,60.6395508 64.7135742,61.640332 C61.453418,62.1943359 58.180957,62.5280273 54.9023437,62.0291016 C51.1400391,61.4566406 47.6625,60.1986328 45.0881836,57.1678711 C44.7911133,56.8189453 44.4146484,56.5769531 43.9095703,56.821875 C43.3921875,57.0729492 43.4320312,57.5320312 43.480957,57.9729492 C43.5175781,58.2758789 43.6004883,58.5820312 43.7074219,58.8700195 C44.3961914,60.7283203 45.6849609,62.1301758 47.194043,63.3547852 C51.1186523,66.5475586 55.7686523,67.4844727 60.6512695,67.5793945 C65.4298828,67.6743164 70.1349609,67.0681641 74.7911133,65.9540039 C85.294043,63.4438477 94.0921875,58.2916992 100.514648,49.4630859 C104.353418,44.1855469 106.78418,38.3692383 106.569727,31.7141602 C106.432031,27.4927734 105.011426,23.7641602 101.934961,20.7336914 C98.2766602,17.1366211 93.7371094,15.3275391 88.8665039,14.240918 C83.4418945,13.0347656 77.9625,12.8633789 72.4277344,13.5246094 C67.6125,14.1 62.9074219,15.0858398 58.3277344,16.6623047 C51.3205078,19.0775391 44.5523437,22.0438477 38.0748047,25.65 C31.4381836,29.3416992 25.1838867,33.5695312 19.6983398,38.8652344 C14.8432617,43.5518555 10.6708008,48.7224609 8.31972656,55.1416992 C7.31572266,57.890625 6.59326172,60.7163086 7.26679687,63.6887695 C8.13017578,67.5152344 10.0157227,70.8275391 12.4954102,73.8152344 C16.2454102,78.3398437 20.8464844,81.9029297 25.5914062,85.3069336 C29.4026367,88.0435547 33.3914062,90.5355469 37.0526367,93.4772461 C38.090332,94.3098633 38.0841797,94.3098633 36.862793,94.949707 C35.4363281,95.6935547 33.9943359,96.4098633 32.5924805,97.2026367 C26.9387695,100.398926 21.4746094,103.86416 17.0141602,108.679687 C14.8192383,111.052148 13.3283203,113.715527 12.6336914,116.672461 C16.2641602,122.09707 20.5836914,127.019531 25.4663086,131.31416 C33.7959961,130.665234 40.1724609,126.330469 44.8836914,119.16123 C47.1583008,115.698926 48.2235352,111.780762 48.6246094,107.647852 C48.9767578,104.005078 48.6061523,100.47832 47.5347656,97.0007812 C47.3481445,96.3884766 46.6532227,95.7793945 46.9256836,95.240625 C47.1796875,94.7446289 47.9452148,94.4935547 48.5083008,94.1692383 C50.7796875,92.849707 53.0572266,91.5489258 55.3959961,90.2050781 C55.4970703,90.7072266 55.3010742,91.0010742 55.2155273,91.3192383 C53.8746094,96.2387695 52.940918,101.197852 53.9604492,106.310156 C54.5941406,109.493848 55.650293,112.490625 57.6583008,115.126465 C59.7246094,117.83877 64.3379883,117.529395 66.2112305,115.05293 C67.9898437,112.701855 69.168457,110.050781 70.3959961,107.412012 C71.0695312,105.96709 71.6876953,104.497852 72.3307617,103.037402 C72.2112305,104.794629 72.2173828,106.508789 72.2818359,108.21709 C72.3459961,109.900781 72.6155273,111.563086 73.490918,113.050781 C74.5438477,114.838477 76.5246094,115.359082 78.3644531,114.403711 C80.3053711,113.396484 81.627832,111.737402 82.6561523,109.937402 C87.0673828,102.195703 91.1601562,94.2884766 94.5489258,86.0323242 C95.2713867,84.2783203 96.0123047,82.5272461 96.8296875,80.5772461 C96.9550781,81.2170898 97.0379883,81.6087891 97.1144531,82.0007812 C97.8673828,85.9344727 99.2083008,89.6569336 101.149219,93.1558594 C101.565527,93.9058594 101.519531,94.4232422 100.993066,95.1424805 C99.2053711,97.5761719 97.2459961,99.8660156 95.3144531,102.180176 C93.6919922,104.127246 91.9561523,105.988477 90.5847656,108.13125 C89.3542969,110.059863 90.0612305,112.03418 92.109375,112.472168 C92.7398437,112.606934 93.4042969,112.646777 94.050293,112.637402 C97.6289062,112.594629 100.931836,111.526172 104.008594,109.775098 C108.150293,107.414941 110.605664,103.955566 110.492285,99.0301758 C110.440137,96.7892578 109.833984,94.6374023 108.931055,92.5831055 C108.732129,92.1269531 108.722754,91.7964844 109.019824,91.3678711 C111.888281,87.2595703 114.422754,82.9526367 116.752441,78.5200195 C117.16582,77.7395508 117.456445,76.8729492 118.123828,76.1109375 C118.212598,76.4200195 118.28291,76.6130859 118.322754,76.8120117 C119.063672,80.4855469 120.061523,84.0761719 121.935059,87.3547852 C122.449219,88.2518555 122.192285,88.7077148 121.482129,89.3077148 C119.036133,91.3863281 116.973047,93.8106445 115.353516,96.5874023 C114.092285,98.7486328 113.228906,101.056641 113.238281,103.588477 C113.247363,106.404785 115.402441,108.063867 118.148437,107.402637 C121.010742,106.716797 123.664746,105.550488 126.046289,103.808789 C131.235059,100.009863 132.756445,96.0026367 131.131055,90.4098633 C130.494434,88.2087891 130.506445,88.2457031 132.713672,87.5783203 C137.541211,86.1210937 142.439062,86.0598633 147.361523,86.8620117 C147.91875,86.9537109 148.469824,87.0580078 149.014453,87.1772461 C149.302148,85.4293945 149.528613,83.6598633 149.687988,81.8689453 C143.390918,80.3296875 137.10293,81.1286133 130.88877,83.4887695 Z M28.8826172,122.871387 C27.4836914,123.367383 26.0296875,123.578613 24.5416992,123.462305 C22.6895508,123.315234 21.5141602,122.008301 21.3946289,120.042773 C21.2598633,117.777539 21.9304687,115.732617 22.922168,113.742773 C24.7250977,110.130469 27.7526367,107.678613 30.8416992,105.272461 C33.8446289,102.930762 37.0713867,100.931543 40.3344727,98.9876953 C41.3232422,98.4 41.3384766,98.4061523 41.5649414,99.5847656 C41.8587891,101.09707 42.122168,102.612305 42.0240234,103.986914 C42.281543,112.230469 36.2938477,120.247852 28.8826172,122.871387 Z M73.8152344,81.3029297 C73.2949219,84.7775391 72.159082,88.0866211 70.95,91.3558594 C69.3029297,95.8192383 67.6989258,100.303711 65.6264648,104.595703 C65.1518555,105.584473 64.6529297,106.56709 63.8847656,107.372168 C63.159375,108.134473 62.5163086,108.045703 62.0144531,107.114941 C61.0347656,105.296484 61.1572266,103.273242 60.9981445,101.803711 C61.0441406,94.4323242 63.5176758,88.4077148 67.5919922,82.9924805 C68.7307617,81.4833984 70.1847656,80.2558594 72.1104492,79.762793 C73.4173828,79.4296875 74.0203125,79.9561523 73.8152344,81.3029297 Z M102.345996,103.126465 C100.95,105.53877 98.9387695,107.292773 96.4713867,108.541699 C96.2080078,108.673242 95.868457,108.905859 95.6296875,108.596777 C95.4032227,108.305859 95.7673828,108.113086 95.9326172,107.929395 C98.3847656,105.250781 100.806152,102.550781 102.98877,99.6457031 C103.022461,99.599707 103.105078,99.5935547 103.291699,99.5141602 C103.270312,100.858301 102.976465,102.039844 102.345996,103.126465 Z M119.277539,103.022461 C118.913379,103.193848 118.490918,103.515234 118.13584,103.239844 C117.744141,102.936914 117.9,102.401074 118.019531,101.990918 C118.576758,100.120605 119.326758,98.3296875 120.36123,96.6612305 C121.230469,95.2561523 122.308301,94.0286133 123.492773,92.8836914 C123.970312,92.4246094 124.184473,92.4796875 124.346777,93.140918 C124.515234,93.8173828 124.530469,94.4938477 124.542773,95.1826172 C124.512305,98.9510742 122.598926,101.458301 119.277539,103.022461 Z" id="Shape" fill="#CD6699"></path>
                </g>
            </g>
        </g>
    </g>
</svg>