<?xml version="1.0" encoding="UTF-8"?>
<svg width="152px" height="152px" viewBox="0 0 152 152" version="1.1" xmlns="http://www.w3.org/2000/svg" xmlns:xlink="http://www.w3.org/1999/xlink">
    <title>2111432</title>
    <g id="Site" stroke="none" stroke-width="1" fill="none" fill-rule="evenodd">
        <g id="FINAL-INTE" transform="translate(-296.000000, -3328.000000)" fill-rule="nonzero">
            <g id="outils-copy" transform="translate(129.000000, 2998.000000)">
                <g id="2111432" transform="translate(167.000000, 330.000000)">
                    <path d="M151,77 C151,79.3173828 150.895996,81.6072266 150.687695,83.8695312 C150.528613,85.6604492 150.301855,87.4296875 150.01416,89.177832 C144.197852,124.807227 113.273535,152 76,152 C57.0141602,152 39.6786133,144.94707 26.4663086,133.31416 C21.5836914,129.019238 17.2641602,124.096777 13.6336914,118.672461 C5.65292969,106.755078 1,92.4195313 1,77 C1,35.5786133 34.5786133,2 76,2 C117.421387,2 151,35.5786133 151,77 Z" id="Path-Copy" fill="#252735"></path>
                    <path d="M76,0.666666667 C34.01,0.666666667 1.42108547e-14,35.1009344 1.42108547e-14,77.5698647 C1.42108547e-14,111.554139 21.774,140.373274 51.965,150.533991 C55.765,151.257893 57.1583333,148.877494 57.1583333,146.83622 C57.1583333,145.010161 57.095,140.171103 57.0633333,133.760329 C35.9226667,138.397216 31.464,123.443092 31.464,123.443092 C28.006,114.567138 23.009,112.19326 23.009,112.19326 C16.1246667,107.42594 23.541,107.523765 23.541,107.523765 C31.1726667,108.058539 35.1816667,115.447559 35.1816667,115.447559 C41.9583333,127.206079 52.972,123.808304 57.3166667,121.84529 C58.0006667,116.869277 59.9576667,113.484545 62.13,111.560661 C45.2516667,109.636777 27.512,103.023832 27.512,73.5590551 C27.512,65.1657023 30.457,58.3049353 35.3336667,52.924581 C34.4786667,50.9811318 31.9136667,43.1616835 35.9986667,32.5705375 C35.9986667,32.5705375 42.3636667,30.5096987 56.8986667,40.4552022 C62.9786667,38.7465321 69.4386667,37.8987187 75.8986667,37.8595889 C82.3586667,37.8987187 88.8186667,38.7465321 94.8986667,40.4552022 C109.338667,30.5096987 115.703667,32.5705375 115.703667,32.5705375 C119.788667,43.1616835 117.223667,50.9811318 116.463667,52.924581 C121.308667,58.3049353 124.253667,65.1657023 124.253667,73.5590551 C124.253667,103.102092 106.488667,109.604168 89.5786667,111.495444 C92.2386667,113.804106 94.7086667,118.519252 94.7086667,125.725666 C94.7086667,136.016817 94.6136667,144.286259 94.6136667,146.784047 C94.6136667,148.799235 95.9436667,151.20572 99.8386667,150.436167 C130.245,140.340665 152,111.501966 152,77.5698647 C152,35.1009344 117.971,0.666666667 76,0.666666667 L76,0.666666667 Z" id="Path" fill="#F2F2F2"></path>
                </g>
            </g>
        </g>
    </g>
</svg>