<?xml version="1.0" encoding="UTF-8"?>
<svg width="99px" height="80px" viewBox="0 0 99 80" version="1.1" xmlns="http://www.w3.org/2000/svg" xmlns:xlink="http://www.w3.org/1999/xlink">
    <title>inte</title>
    <g id="Site" stroke="none" stroke-width="1" fill="none" fill-rule="evenodd">
        <g id="FINAL-INTE" transform="translate(-150.000000, -1362.000000)">
            <g id="expertise-simple-copy" transform="translate(0.000000, 1242.000000)">
                <g id="column-1" transform="translate(150.000000, 121.000000)">
                    <g id="inte" transform="translate(1.000000, 0.000000)">
                        <g id="Group">
                            <g>
                                <g>
                                    <g>
                                        <rect id="Rectangle" fill="#FFFFFF" x="0" y="0" width="97" height="78" rx="3"></rect>
                                        <path d="M13.0375963,15.894382 C13.0375963,22.952809 7.31007704,28.6764045 0.24403698,28.6764045 L0.24403698,15.894382 L13.0375963,15.894382 Z" id="Path" fill="#02FFB3" fill-rule="nonzero"></path>
                                        <path d="M48.5722866,54.2496629 L25.1157781,77.6808989 L3.61845917,77.6808989 C1.75487827,77.6808989 0.24403698,76.1716854 0.24403698,74.3101124 L0.24403698,52.2202247 L23.3923482,29.0968539 C30.3456826,22.1510112 41.6189522,22.1510112 48.5722866,29.0968539 C55.525396,36.0426966 55.525396,47.3040449 48.5722866,54.2496629 Z" id="Path" fill="#D4FBFF" fill-rule="nonzero"></path>
                                        <path d="M96.7390139,15.894382 L96.7390139,3.68921348 C96.7390139,1.82764045 95.2281726,0.318426966 93.3645917,0.318426966 L3.61845917,0.318426966 C1.75487827,0.318426966 0.24403698,1.82764045 0.24403698,3.68921348 L0.24403698,15.894382 L96.7390139,15.894382 Z" id="Path" fill="#F9830F" fill-rule="nonzero"></path>
                                    </g>
                                    <g transform="translate(7.548536, 4.842697)" fill-rule="nonzero">
                                        <g transform="translate(0.000000, 1.123596)" id="Oval">
                                            <ellipse fill="#F9012D" cx="2.61472727" cy="2.64449438" rx="2.45230508" ry="2.44966292"></ellipse>
                                            <ellipse fill="#FFFFFF" cx="10.4436117" cy="2.64449438" rx="2.45230508" ry="2.44966292"></ellipse>
                                            <ellipse fill="#02FFB3" cx="18.2722712" cy="2.64449438" rx="2.45230508" ry="2.44966292"></ellipse>
                                        </g>
                                        <path d="M80.5985239,6.52022472 L49.9682188,6.52022472 L49.9682188,1.01573034 L80.5987488,1.01573034 C81.2198675,1.01573034 81.7235562,1.5188764 81.7235562,2.13932584 L81.7235562,5.39685393 C81.7235562,6.01730337 81.2198675,6.52022472 80.5985239,6.52022472 L80.5985239,6.52022472 Z" id="Path" fill="#FFDBED"></path>
                                        <path d="M50.118943,1.08561798 C48.9297966,-0.102247191 46.9949029,-0.102247191 45.8057565,1.08561798 C44.6166102,2.27348315 44.6166102,4.20629213 45.8057565,5.3941573 C46.713926,6.30134831 48.0560462,6.51325843 49.1696055,6.03505618 L50.1477381,7.01213483 C50.5868629,7.45078652 51.2993159,7.45078652 51.7384407,7.01213483 C52.1775655,6.57348315 52.1775655,5.86179775 51.7384407,5.42314607 L50.7603082,4.44606742 C51.2392512,3.33348315 51.0271125,1.99280899 50.118943,1.08561798 L50.118943,1.08561798 Z M47.3964592,2.67460674 C47.7084807,2.36292135 48.2162188,2.36292135 48.5282404,2.67460674 C48.8402619,2.98629213 48.8402619,3.49348315 48.5282404,3.80516854 C48.2162188,4.11685393 47.7084807,4.11685393 47.3964592,3.80516854 C47.0844376,3.49348315 47.0844376,2.98629213 47.3964592,2.67460674 Z" id="Shape" fill="#FFFFFF"></path>
                                    </g>
                                </g>
                                <path d="M46.3575408,59.9773034 C46.263282,59.6413483 45.8689245,59.4876404 45.5762496,59.6779775 C45.0358921,60.028764 44.557849,60.2040449 44.1416703,60.2040449 C43.6566533,60.2040449 43.3306841,60.0182022 43.1630878,59.6453933 C42.9952666,59.2737079 42.9115809,58.64 42.9115809,57.7462921 L42.9115809,43.5948315 C42.9115809,41.547191 42.7716549,39.927191 42.4922527,38.7350562 C42.2126256,37.5435955 41.6621448,36.5382022 40.8426102,35.7186517 C39.9479384,34.8249438 38.8294299,34.1921348 37.4873097,33.8195506 C34.5729337,33.0103371 31.4605917,33.0280899 28.509322,33.6298876 C26.0588166,34.1294382 23.3464561,35.0510112 21.857886,37.1991011 C19.9578613,39.9413483 21.7042373,44.1534831 25.1848413,44.1537079 C29.5099507,44.1539326 31.2093097,38.5883146 27.4765239,36.2788764 C28.492,35.8721348 30.424869,35.3101124 32.3415408,35.9096629 C33.8323606,36.3759551 34.8554854,37.7660674 34.8590847,39.3265169 L34.8590847,39.3498876 L34.8590847,43.7069663 C34.8590847,44.7123596 34.3837411,45.5040449 33.4332789,46.0811236 C29.5014022,48.4674157 23.9918706,48.6505618 20.9632142,52.4489888 C19.457322,54.3375281 19.2260616,57.1092135 20.0892388,59.3417978 C21.192225,62.1948315 23.8274237,63.3137079 26.7507982,63.3137079 C30.3661541,63.3137079 33.1064099,61.805618 34.9708906,58.7892135 C35.0075593,60.1674157 35.4365609,61.2662921 36.2569954,62.0849438 C37.076755,62.9044944 38.5122342,63.3137079 40.5627581,63.3137079 C42.8510663,63.3137079 44.8075562,62.6993258 46.4311032,61.4701124 C46.6027488,61.3402247 46.6781109,61.1188764 46.6198459,60.9116854 L46.3575408,59.9773034 Z M34.8588598,55.3631461 C33.77702,56.8905618 32.8162096,57.7714607 31.2241572,58.1101124 C30.0856271,58.3523596 27.5894545,57.9537079 27.5894545,55.2689888 C27.5894545,52.6901124 30.5530971,51.4698876 32.0070231,50.5386517 C33.4609492,49.6449438 34.4116364,48.8262921 34.8590847,48.0808989 L34.8590847,55.3631461 L34.8588598,55.3631461 Z" id="Shape" fill="#0089EF" fill-rule="nonzero"></path>
                                <g transform="translate(26.445300, 20.797753)" fill-rule="nonzero" id="Path">
                                    <path d="M24.6166348,6.44921348 L2.6250755,6.44921348 C1.27035747,6.44921348 0.172095532,5.35213483 0.172095532,3.9988764 C0.172095532,2.64561798 1.27035747,1.54853933 2.6250755,1.54853933 L24.6166348,1.54853933 C25.9713529,1.54853933 27.0696148,2.64561798 27.0696148,3.9988764 C27.0696148,5.35235955 25.9713529,6.44921348 24.6166348,6.44921348 Z" fill="#D2DEFF"></path>
                                    <path d="M50.7384869,6.44921348 L40.219963,6.44921348 C38.865245,6.44921348 37.7669831,5.35213483 37.7669831,3.9988764 C37.7669831,2.64561798 38.865245,1.54853933 40.219963,1.54853933 L50.7384869,1.54853933 C52.0932049,1.54853933 53.1914669,2.64561798 53.1914669,3.9988764 C53.1914669,5.35235955 52.0932049,6.44921348 50.7384869,6.44921348 Z" fill="#0089EF"></path>
                                    <path d="M30.5628166,8.14921348 C30.3812727,8.14921348 30.1974792,8.10539326 30.0267334,8.01258427 C29.4807519,7.71640449 29.2789615,7.0341573 29.5756857,6.48898876 L32.7426934,0.669438202 C33.0391926,0.124044944 33.7219507,-0.0782022472 34.2679322,0.218876404 C34.8139137,0.51505618 35.0157042,1.19730337 34.71898,1.74247191 L31.5519723,7.56202247 C31.3483821,7.93685393 30.9618983,8.14921348 30.5628166,8.14921348 Z" fill="#FE3823"></path>
                                </g>
                                <g transform="translate(13.622496, 33.157303)" fill-rule="nonzero" id="Path">
                                    <g>
                                        <path d="M70.0766256,9.63483146 L46.527433,9.63483146 C45.9063143,9.63483146 45.4026256,10.1379775 45.4026256,10.758427 C45.4026256,11.3788764 45.9063143,11.8820225 46.527433,11.8820225 L70.0766256,11.8820225 C70.6977442,11.8820225 71.201433,11.3788764 71.201433,10.758427 C71.201433,10.1379775 70.6977442,9.63483146 70.0766256,9.63483146 Z" fill-opacity="0.6" fill="#0089EF"></path>
                                        <path d="M64.6775501,5.26898876 L46.527433,5.26898876 C45.9063143,5.26898876 45.4026256,5.77213483 45.4026256,6.39258427 C45.4026256,7.01303371 45.9063143,7.51617978 46.527433,7.51617978 L64.6775501,7.51617978 C65.2986687,7.51617978 65.8023575,7.01303371 65.8023575,6.39258427 C65.8023575,5.77213483 65.2986687,5.26898876 64.6775501,5.26898876 Z" fill-opacity="0.6" fill="#0089EF"></path>
                                        <path d="M49.155208,0.0229213483 L46.527433,0.0229213483 C45.9063143,0.0229213483 45.4026256,0.526067416 45.4026256,1.14651685 C45.4026256,1.76696629 45.9063143,2.27011236 46.527433,2.27011236 L49.155208,2.27011236 C49.7763267,2.27011236 50.2800154,1.76696629 50.2800154,1.14651685 C50.2800154,0.526067416 49.7763267,0.0229213483 49.155208,0.0229213483 Z" fill="#FE3823"></path>
                                        <path d="M8.65156857,31.674382 L1.29960247,31.674382 C0.678483821,31.674382 0.174795069,32.1775281 0.174795069,32.7979775 C0.174795069,33.418427 0.678483821,33.921573 1.29960247,33.921573 L8.65156857,33.921573 C9.27268721,33.921573 9.77637596,33.418427 9.77637596,32.7979775 C9.77637596,32.1775281 9.27291217,31.674382 8.65156857,31.674382 Z" fill="#FFFFFF"></path>
                                        <path d="M34.9203205,5.26898876 L27.5683544,5.26898876 C26.9472357,5.26898876 26.443547,5.77213483 26.443547,6.39258427 C26.443547,7.01303371 26.9472357,7.51617978 27.5683544,7.51617978 L34.9203205,7.51617978 C35.5414391,7.51617978 36.0451279,7.01303371 36.0451279,6.39258427 C36.0451279,5.77213483 35.5414391,5.26898876 34.9203205,5.26898876 Z" fill="#FFFFFF"></path>
                                    </g>
                                    <g transform="translate(45.217257, 18.876404)" fill="#0089EF" fill-opacity="0.6">
                                        <path d="M24.8593683,4.5505618 L1.31017565,4.5505618 C0.689057011,4.5505618 0.185368259,5.05370787 0.185368259,5.6741573 C0.185368259,6.29460674 0.689057011,6.79775281 1.31017565,6.79775281 L24.8593683,6.79775281 C25.4804869,6.79775281 25.9841757,6.29460674 25.9841757,5.6741573 C25.9841757,5.05370787 25.4804869,4.5505618 24.8593683,4.5505618 Z"></path>
                                        <path d="M24.8593683,0.18494382 L1.31017565,0.18494382 C0.689057011,0.18494382 0.185368259,0.688089888 0.185368259,1.30853933 C0.185368259,1.92898876 0.689057011,2.43213483 1.31017565,2.43213483 L24.8593683,2.43213483 C25.4804869,2.43213483 25.9841757,1.92898876 25.9841757,1.30853933 C25.9841757,0.688089888 25.4804869,0.18494382 24.8593683,0.18494382 Z"></path>
                                    </g>
                                </g>
                                <path d="M72.2695039,69.1341573 L60.7413529,69.1341573 C60.1202342,69.1341573 59.6165455,68.6310112 59.6165455,68.0105618 L59.6165455,65.9552809 C59.6165455,65.3348315 60.1202342,64.8316854 60.7413529,64.8316854 L72.2695039,64.8316854 C72.8906225,64.8316854 73.3943112,65.3348315 73.3943112,65.9552809 L73.3943112,68.0105618 C73.3943112,68.6310112 72.8908475,69.1341573 72.2695039,69.1341573 Z" id="Path" fill="#0089EF" fill-rule="nonzero"></path>
                                <ellipse id="Oval" fill="#FE3823" fill-rule="nonzero" cx="41.1913005" cy="36.0217978" rx="1.12525732" ry="1.12404494"></ellipse>
                                <ellipse id="Oval" fill="#FE3823" fill-rule="nonzero" cx="22.2738398" cy="62.1889888" rx="1.12525732" ry="1.12404494"></ellipse>
                            </g>
                            <rect id="Rectangle" fill="#161616" x="48" y="16" width="1" height="61" rx="0.5"></rect>
                            <rect id="Rectangle" fill="#FFFFFF" x="49" y="16" width="47" height="61" rx="3"></rect>
                            <rect id="Rectangle-Copy-6" stroke="#161616" x="0" y="0" width="97" height="78" rx="3"></rect>
                        </g>
                        <g id="code" transform="translate(55.000000, 21.000000)" fill-rule="nonzero">
                            <path d="M21.0022492,18.339354 L16.2858864,18.339354 C15.9033375,18.339354 15.5932203,18.0358183 15.5932203,17.6613879 C15.5932203,17.2869576 15.9033375,16.9834218 16.2858864,16.9834218 L21.0022492,16.9834218 C21.3847981,16.9834218 21.6949153,17.2869576 21.6949153,17.6613879 C21.6949153,18.0358183 21.3847981,18.339354 21.0022492,18.339354 Z" id="Path" fill="#F9012D"></path>
                            <path d="M12.197378,18.339354 L0.683977908,18.339354 C0.30622734,18.339354 1.24344979e-14,18.0358183 1.24344979e-14,17.6613879 C1.24344979e-14,17.2869576 0.30622734,16.9834218 0.683977908,16.9834218 L12.197378,16.9834218 C12.5751286,16.9834218 12.8813559,17.2869576 12.8813559,17.6613879 C12.8813559,18.0358183 12.5751286,18.339354 12.197378,18.339354 Z" id="Path" fill="#F9012D"></path>
                            <path d="M22.8714856,31.8986761 L14.3827515,31.8986761 C13.927984,31.8986761 13.559322,31.5951403 13.559322,31.22071 C13.559322,30.8462796 13.927984,30.5427439 14.3827515,30.5427439 L22.8714856,30.5427439 C23.3262531,30.5427439 23.694915,30.8462796 23.694915,31.22071 C23.694915,31.5951403 23.3262531,31.8986761 22.8714856,31.8986761 Z" id="Path" fill="#F9012D"></path>
                            <path d="M11.5384488,31.8986761 L1.34290718,31.8986761 C0.975670363,31.8986761 0.677966102,31.5951403 0.677966102,31.22071 C0.677966102,30.8462796 0.975670363,30.5427439 1.34290718,30.5427439 L11.5384488,30.5427439 C11.9056856,30.5427439 12.2033898,30.8462796 12.2033898,31.22071 C12.2033898,31.5951403 11.9056856,31.8986761 11.5384488,31.8986761 Z" id="Path" fill="#F9012D"></path>
                            <path d="M21.0339685,46.1359642 L14.2202688,46.1359642 C13.855238,46.1359642 13.559322,45.8324284 13.559322,45.4579981 C13.559322,45.0835678 13.855238,44.780032 14.2202688,44.780032 L21.0339685,44.780032 C21.3989993,44.780032 21.6949153,45.0835678 21.6949153,45.4579981 C21.6949153,45.8324284 21.3989993,46.1359642 21.0339685,46.1359642 Z" id="Path" fill="#F9012D"></path>
                            <path d="M11.5384488,46.1359642 L1.34290718,46.1359642 C0.975670363,46.1359642 0.677966102,45.8324284 0.677966102,45.4579981 C0.677966102,45.0835678 0.975670363,44.780032 1.34290718,44.780032 L11.5384488,44.780032 C11.9056856,44.780032 12.2033898,45.0835678 12.2033898,45.4579981 C12.2033898,45.8324284 11.9056856,46.1359642 11.5384488,46.1359642 Z" id="Path" fill="#F9012D"></path>
                            <path d="M7.29577285,11.3259394 C7.52848881,11.3321322 7.75336898,11.2419618 7.91685934,11.0769017 C8.08461609,10.9088132 8.17511579,10.6791166 8.16690714,10.4422574 C8.16809586,10.2967836 8.12599484,10.1542184 8.04591627,10.0325503 C7.96119161,9.90634017 7.84035795,9.80838453 7.69907576,9.7513787 L2.42387368,7.64660883 L7.69907576,5.54183895 C7.98945004,5.43715245 8.17931118,5.15837367 8.16959583,4.85096029 C8.17881703,4.61784661 8.09130251,4.39122806 7.92761408,4.22434941 C7.76537368,4.06327715 7.54355605,3.97607129 7.31459365,3.98334523 C7.15291233,3.9849618 6.99309564,4.01793295 6.84407359,4.08041636 L1.14943648,6.39405653 C0.89295505,6.49078308 0.673065562,6.66462696 0.520283935,6.89146239 C0.370311434,7.11475764 0.291587675,7.37797687 0.294434304,7.64660883 C0.289037175,7.91809248 0.367910692,8.18461798 0.520283935,8.40978875 C0.67736576,8.63468834 0.89563097,8.81026729 1.14943648,8.91589753 L6.84407359,11.2295377 C6.9871118,11.289997 7.14042003,11.3227161 7.29577285,11.3259394 L7.29577285,11.3259394 Z" id="Path" fill="#161616"></path>
                            <path d="M9.87691149,13.4608727 C10.0753613,13.4624273 10.2695577,13.4035628 10.4334695,13.2921318 C10.6063465,13.1705087 10.7292823,12.9907727 10.7796378,12.7860231 L14.4906968,1.21849167 C14.5212871,1.10948549 14.537333,0.996942232 14.538421,0.88376364 C14.5438501,0.639330607 14.4372187,0.405738647 14.2487151,0.249119289 C14.0614891,0.0856293708 13.8201435,-0.00307883709 13.5711662,9.9475983e-14 C13.152415,-0.00165143964 12.7833459,0.273553946 12.6670955,0.674223892 L8.97015211,12.2424247 C8.93893354,12.3513157 8.92265371,12.4639133 8.92175576,12.5771528 C8.9161204,12.8218185 9.02277127,13.0556997 9.21146168,13.2124666 C9.39474326,13.3744725 9.631867,13.4629751 9.87691149,13.4608727 L9.87691149,13.4608727 Z" id="Path" fill="#161616"></path>
                            <path d="M15.4344256,10.0325503 C15.354347,10.1542184 15.312246,10.2967836 15.3134347,10.4422574 C15.3052261,10.6791166 15.3957258,10.9088132 15.5634825,11.0769017 C15.7266744,11.2419947 15.9513684,11.3321881 16.1838969,11.3259394 C16.3392573,11.3227817 16.4925779,11.29006 16.6355961,11.2295377 L22.3309054,8.91589753 C22.5845955,8.81007455 22.8028112,8.6345354 22.9600579,8.40978875 C23.1122338,8.18455904 23.1908746,7.91802667 23.1852354,7.64660883 C23.1883227,7.37804132 23.1098314,7.11481582 22.9600579,6.89146239 C22.8071111,6.66477885 22.5872758,6.49097776 22.3309054,6.39405653 L16.6355961,4.08041636 C16.4866204,4.01778453 16.326774,3.98480725 16.1650761,3.98334523 C15.9361137,3.97607129 15.714296,4.06327715 15.5520556,4.22434941 C15.3883672,4.39122806 15.3008527,4.61784661 15.3100739,4.85096029 C15.3003585,5.15837367 15.4902197,5.43715245 15.7805939,5.54183895 L21.0598291,7.64660883 L15.784627,9.7513787 C15.6418937,9.80744143 15.5197245,9.90552931 15.4344256,10.0325503 L15.4344256,10.0325503 Z" id="Path" fill="#161616"></path>
                            <path d="M22.4526555,21.3604164 L5.77784139,21.3604164 C5.41190141,21.3604164 5.11524844,21.6601421 5.11524844,22.0298724 C5.11524844,22.3996028 5.41190141,22.6993285 5.77784139,22.6993285 L22.4526555,22.6993285 C22.8185955,22.6993285 23.1152484,22.3996028 23.1152484,22.0298724 C23.1152484,21.6601421 22.8185955,21.3604164 22.4526555,21.3604164 Z" id="Path" fill="#3A2C60"></path>
                            <path d="M27.0845483,25.3604164 L1.14594858,25.3604164 C0.576708614,25.3604164 0.115248443,25.6601421 0.115248443,26.0298724 C0.115248443,26.3996028 0.576708614,26.6993285 1.14594858,26.6993285 L27.0845483,26.6993285 C27.6537883,26.6993285 28.1152484,26.3996028 28.1152484,26.0298724 C28.1152484,25.6601421 27.6537883,25.3604164 27.0845483,25.3604164 Z" id="Path-Copy-3" fill="#161616"></path>
                            <path d="M5.67217152,36.6389121 L15.8663248,36.6389121 C16.2375549,36.6389121 16.5384963,36.3391864 16.5384963,35.9694561 C16.5384963,35.5997257 16.2375549,35.3 15.8663248,35.3 L5.67217152,35.3 C5.30094144,35.3 5,35.5997257 5,35.9694561 C5,36.3391864 5.30094144,36.6389121 5.67217152,36.6389121 Z" id="Path" fill="#3A2C60"></path>
                            <path d="M31.7590655,40.1051862 L1.4714314,40.1051862 C0.722432237,40.1051862 0.115248443,40.4049119 0.115248443,40.7746423 C0.115248443,41.1443727 0.722432237,41.4440984 1.4714314,41.4440984 L31.7590655,41.4440984 C32.5080646,41.4440984 33.1152484,41.1443727 33.1152484,40.7746423 C33.1152484,40.4049119 32.5080646,40.1051862 31.7590655,40.1051862 Z" id="Path" fill="#161616"></path>
                            <path d="M35.642682,35.3 L19.713268,35.3 C19.319341,35.3 19,35.5997257 19,35.9694561 C19,36.3391864 19.319341,36.6389121 19.713268,36.6389121 L35.642682,36.6389121 C36.036609,36.6389121 36.35595,36.3391864 36.35595,35.9694561 C36.35595,35.5997257 36.036609,35.3 35.642682,35.3 Z" id="Path-Copy-4" fill="#161616"></path>
                        </g>
                    </g>
                </g>
            </g>
        </g>
    </g>
</svg>