<?xml version="1.0" encoding="UTF-8"?>
<svg width="150px" height="150px" viewBox="0 0 150 150" version="1.1" xmlns="http://www.w3.org/2000/svg" xmlns:xlink="http://www.w3.org/1999/xlink">
    <title>919828</title>
    <g id="Site" stroke="none" stroke-width="1" fill="none" fill-rule="evenodd">
        <g id="FINAL-INTE" transform="translate(-1162.000000, -3078.000000)" fill-rule="nonzero">
            <g id="outils-copy" transform="translate(129.000000, 2998.000000)">
                <g id="919828" transform="translate(1033.000000, 80.000000)">
                    <path d="M150,75 C150,84.7713867 148.132617,94.1050781 144.731543,102.667383 C142.913086,107.24707 140.656934,111.606152 138.012012,115.689844 C134.718164,120.783691 130.821094,125.452148 126.425391,129.590918 C123.850781,132.018457 121.108008,134.262305 118.212012,136.307227 C105.997852,144.933691 91.0927734,150 75,150 C58.9072266,150 44.0021484,144.933691 31.7876953,136.307227 C28.1630859,133.748145 24.7775391,130.879687 21.6703125,127.732617 C8.27138672,114.186621 0,95.5561523 0,75 C0,54.4438477 8.27138672,35.8133789 21.6703125,22.2673828 C24.9612305,18.9369141 28.5641602,15.9152344 32.4304688,13.2459961 C44.5224609,4.89169922 59.1887695,0 75,0 C90.8112305,0 105.477539,4.89169922 117.569531,13.2459961 C120.523535,15.2818359 123.32168,17.5286133 125.944922,19.9623047 C130.539844,24.2112305 134.598926,29.0326172 138.012305,34.3101562 C140.657227,38.3938477 142.913379,42.7529297 144.731836,47.3326172 C148.132617,55.8949219 150,65.2286133 150,75 Z" id="Path" fill="#E4BA42"></path>
                    <g id="Group" transform="translate(21.386719, 13.183594)" fill="#F2F2F2">
                        <path d="M93.1787109,55.0693359 C91.0913086,49.0154297 82.5319336,49.0154297 80.8623047,54.0254883 C79.1923828,59.0355469 84.8288086,61.9579102 93.5964844,64.8808594 C102.36416,67.8035156 107.791992,75.5276367 106.748145,82.4162109 C105.704297,89.3047852 102.781641,98.2816406 85.4551758,98.2816406 C74.6261719,98.2816406 68.6080078,91.5131836 65.6170898,86.437207 L75.4347656,80.5374023 C75.4347656,80.5374023 78.7749023,87.6351563 85.0374023,87.6351563 C91.3001953,87.6351563 93.8050781,85.5477539 93.8050781,80.7462891 C93.8050781,74.9012695 73.5556641,72.8138672 70.4244141,62.793457 C67.2931641,52.7730469 71.4682617,38.577832 86.080957,39.6213867 C95.2142578,40.2738281 100.351465,44.7585938 102.920215,48.0304688 L93.1787109,55.0693359 Z" id="Path"></path>
                        <path d="M47.6701172,40.6655273 C47.6701172,40.6655273 47.6701172,75.9451172 47.6701172,80.746582 C47.6701172,85.5477539 43.4950195,88.0532227 39.3199219,87.2179688 C35.1448242,86.3830078 33.2660156,81.3729492 33.2660156,81.3729492 L23.6633789,87.8443359 C23.6633789,87.8443359 25.7507813,97.4469727 38.9024414,98.2822266 C52.0541016,99.1171875 59.569043,91.1844727 59.569043,84.5041992 C59.569043,77.8239258 59.569043,40.6655273 59.569043,40.6655273 L47.6701172,40.6655273 L47.6701172,40.6655273 Z" id="Path"></path>
                        <path d="M0.28359375,0.0624023438 L0.28359375,114.549023 C3.39082031,117.696094 6.77636719,120.564258 10.4009766,123.123633 L96.8255859,123.123633 C99.721582,121.078711 102.464355,118.834863 105.038965,116.407324 L6.99990234,116.407324 L6.99990234,6.77871094 L116.625293,6.77871094 L116.625293,102.50625 C119.270215,98.4225586 121.526367,94.0634766 123.344824,89.4837891 L123.344824,0.0624023438 L0.28359375,0.0624023438 Z" id="Path"></path>
                    </g>
                    <circle id="Oval" fill="#3F4A43" cx="25.7387695" cy="99.3583008" r="11.8989258"></circle>
                </g>
            </g>
        </g>
    </g>
</svg>